HIERARCHY
ROOT Hips
{
	OFFSET -0.001795 -0.223333 0.028219
	CHANNELS 6 Xposition Yposition Zposition Zrotation Yrotation Xrotation 
	JOINT LeftUpLeg
	{
		OFFSET 0.069520 -0.091406 -0.006815
		CHANNELS 3 Zrotation Yrotation Xrotation
		JOINT LeftLeg
		{
			OFFSET 0.034277 -0.375199 -0.004496
			CHANNELS 3 Zrotation Yrotation Xrotation
			JOINT LeftFoot
			{
				OFFSET -0.013596 -0.397961 -0.043693
				CHANNELS 3 Zrotation Yrotation Xrotation
				JOINT LeftToe
				{
					OFFSET 0.026358 -0.055791 0.119288
					CHANNELS 3 Zrotation Yrotation Xrotation
					End Site
					{
						OFFSET 0.000000 0.000000 0.000000
					}
				}
			}
		}
	}
	JOINT RightUpLeg
	{
		OFFSET -0.067670 -0.090522 -0.004320
		CHANNELS 3 Zrotation Yrotation Xrotation
		JOINT RightLeg
		{
			OFFSET -0.038290 -0.382569 -0.008850
			CHANNELS 3 Zrotation Yrotation Xrotation
			JOINT RightFoot
			{
				OFFSET 0.015774 -0.398415 -0.042312
				CHANNELS 3 Zrotation Yrotation Xrotation
				JOINT RightToe
				{
					OFFSET -0.025372 -0.048144 0.123348
					CHANNELS 3 Zrotation Yrotation Xrotation
					End Site
					{
						OFFSET 0.000000 0.000000 0.000000
					}
				}
			}
		}
	}
	JOINT Spine
	{
		OFFSET -0.002533 0.108963 -0.026696
		CHANNELS 3 Zrotation Yrotation Xrotation
		JOINT Spine1
		{
			OFFSET 0.005487 0.135180 0.001092
			CHANNELS 3 Zrotation Yrotation Xrotation
			JOINT Spine2
			{
				OFFSET 0.001457 0.052922 0.025425
				CHANNELS 3 Zrotation Yrotation Xrotation
				JOINT Neck
				{
					OFFSET -0.002778 0.213870 -0.042857
					CHANNELS 3 Zrotation Yrotation Xrotation
					JOINT Head
					{
						OFFSET 0.005152 0.064970 0.051349
						CHANNELS 3 Zrotation Yrotation Xrotation
						End Site
						{
							OFFSET 0.000000 0.000000 0.000000
						}
					}
				}
				JOINT LeftShoulder
				{
					OFFSET 0.078845 0.121749 -0.034090
					CHANNELS 3 Zrotation Yrotation Xrotation
					JOINT LeftArm
					{
						OFFSET 0.090977 0.030469 -0.008868
						CHANNELS 3 Zrotation Yrotation Xrotation
						JOINT LeftForeArm
						{
							OFFSET 0.259612 -0.012772 -0.027456
							CHANNELS 3 Zrotation Yrotation Xrotation
							JOINT LeftHand
							{
								OFFSET 0.249234 0.008986 -0.001171
								CHANNELS 3 Zrotation Yrotation Xrotation
								End Site
								{
									OFFSET 0.000000 0.000000 0.000000
								}
							}
						}
					}
				}
				JOINT RightShoulder
				{
					OFFSET -0.081759 0.118833 -0.038615
					CHANNELS 3 Zrotation Yrotation Xrotation
					JOINT RightArm
					{
						OFFSET -0.096012 0.032551 -0.009143
						CHANNELS 3 Zrotation Yrotation Xrotation
						JOINT RightForeArm
						{
							OFFSET -0.253742 -0.013329 -0.021401
							CHANNELS 3 Zrotation Yrotation Xrotation
							JOINT RightHand
							{
								OFFSET -0.255298 0.007772 -0.005559
								CHANNELS 3 Zrotation Yrotation Xrotation
								End Site
								{
									OFFSET 0.000000 0.000000 0.000000
								}
							}
						}
					}
				}
			}
		}
	}
}
MOTION
Frames: 17
Frame Time: 0.050000
-0.204977 0.501547 0.545975 14.438936 -1.406332 1.030497 2.997935 -2.159158 -33.397409 6.536618 -19.654604 119.487452 -11.338905 -28.742492 -3.075684 0.000000 0.000000 0.000000 -3.531923 0.617922 -7.892722 12.663755 -12.590327 109.438947 -5.278801 -12.941518 -1.374021 0.000000 0.000000 0.000000 -7.525256 0.995845 24.707326 2.784496 -0.323534 -18.998296 -6.082990 1.502994 24.805155 9.187127 -2.359848 -33.606748 0.000000 0.000000 0.000000 -39.263641 -10.068971 4.608303 -46.975909 -16.787623 -1.120298 -169.792206 -78.919952 175.887792 0.000000 0.000000 0.000000 9.761521 17.639909 7.375491 56.427195 26.462141 5.222774 -72.803085 71.774991 -49.086293 0.000000 0.000000 0.000000 
-0.199581 0.494316 0.541941 14.872509 -1.891444 0.509617 3.893293 -1.794280 -32.510673 7.528666 -21.830137 120.796052 -12.509824 -33.457543 -4.425209 0.000000 0.000000 0.000000 -3.716381 0.689334 -9.055437 13.329563 -13.672068 111.389845 -5.399270 -13.830067 2.447324 0.000000 0.000000 0.000000 -6.505499 0.770513 24.172113 3.096897 -0.399347 -19.580248 -7.123672 1.258451 24.477363 8.735656 -2.094710 -34.503267 0.000000 0.000000 0.000000 -40.634991 -9.806761 4.722147 -45.632242 -16.552625 -1.338082 -170.480584 -81.282965 177.001776 0.000000 0.000000 0.000000 11.153540 18.035966 7.640853 54.404502 27.942137 5.553620 -66.292001 71.178018 -43.665095 0.000000 0.000000 0.000000 
-0.193356 0.487689 0.540101 15.478178 -1.882580 -0.164948 4.406895 -1.553029 -30.475315 9.428098 -25.358856 119.949830 -15.696330 -37.232986 -1.429119 0.000000 0.000000 0.000000 -4.331998 0.633013 -8.741767 13.837951 -14.467326 111.488813 -5.405638 -14.359839 6.562698 0.000000 0.000000 0.000000 -5.799475 0.592258 23.554116 3.850531 -0.602019 -19.838438 -8.535885 0.567432 24.442468 9.935320 -2.762315 -34.739581 0.000000 0.000000 0.000000 -40.960054 -9.753240 5.094261 -45.222074 -15.860723 -1.731360 178.600291 -82.021727 -170.173956 0.000000 0.000000 0.000000 12.106172 18.936948 8.029770 53.625327 27.812019 5.333688 -68.501915 71.085423 -45.744974 0.000000 0.000000 0.000000 
-0.186534 0.482725 0.539676 16.143031 -4.138572 -0.907440 4.815873 -1.129224 -26.928914 12.234717 -27.039045 117.892206 -21.460154 -37.780200 8.079938 0.000000 0.000000 0.000000 -5.331037 0.604282 -8.573139 13.888864 -12.143804 112.338713 -5.048276 -14.148897 12.120658 0.000000 0.000000 0.000000 -5.454864 0.604982 22.174085 3.493689 -0.550301 -20.013670 -8.469539 1.590060 24.728231 8.757968 -2.243759 -34.854151 0.000000 0.000000 0.000000 -42.026962 -9.351846 5.086452 -45.144710 -15.202826 -2.103963 -176.589073 -84.869759 -175.651487 0.000000 0.000000 0.000000 11.888713 19.034235 7.961953 53.522804 29.497040 6.062850 -62.682456 70.053274 -40.449186 0.000000 0.000000 0.000000 
-0.179332 0.481533 0.538197 16.552137 -5.951253 -1.488842 4.635885 -0.959853 -23.683444 14.581624 -27.896105 115.686055 -26.682991 -39.688904 14.800456 0.000000 0.000000 0.000000 -5.477495 0.608364 -8.331933 13.473939 -9.381659 113.135461 -4.639603 -13.369306 12.862632 0.000000 0.000000 0.000000 -5.257771 0.648184 21.880321 3.394181 -0.588365 -19.786228 -8.367323 1.646205 24.669280 9.220418 -2.636208 -34.822948 0.000000 0.000000 0.000000 -41.884167 -9.478422 5.870069 -46.093939 -14.746401 -2.518612 128.177409 -86.854700 -117.438232 0.000000 0.000000 0.000000 11.602345 19.319373 7.859075 52.478561 31.745752 6.867570 -62.452122 67.658095 -38.969258 0.000000 0.000000 0.000000 
-0.172076 0.482093 0.533756 16.445266 -6.132023 -2.744959 3.531341 -1.088476 -21.269736 16.204604 -29.133776 113.678632 -30.187838 -41.389549 18.573059 0.000000 0.000000 0.000000 -5.414794 0.547744 -7.335020 13.396278 -8.836967 113.588961 -6.049021 -15.836340 11.520690 0.000000 0.000000 0.000000 -4.359056 0.485188 22.569198 3.479526 -0.670178 -19.230665 -9.502832 0.662622 24.828997 11.365948 -3.740214 -35.570228 0.000000 0.000000 0.000000 -43.503894 -9.017326 6.225326 -43.876750 -15.241445 -2.565812 69.369823 -85.106797 -57.049826 0.000000 0.000000 0.000000 12.360760 21.145501 8.532236 49.330345 34.663962 7.506827 -65.380799 61.848090 -37.511108 0.000000 0.000000 0.000000 
-0.165100 0.484516 0.526487 16.185707 -6.541575 -3.218221 2.577040 -1.222123 -20.506563 16.376387 -28.301986 112.813926 -28.211314 -42.921724 14.496845 0.000000 0.000000 0.000000 -5.623704 0.490854 -6.304816 13.116936 -7.637475 113.123879 -6.206070 -15.868801 6.171344 0.000000 0.000000 0.000000 -3.816237 0.411523 23.219752 3.180529 -0.597291 -19.268912 -8.981237 0.899339 25.139501 11.271130 -3.712889 -35.509282 0.000000 0.000000 0.000000 -42.959592 -10.022099 7.138962 -44.751733 -16.907856 -2.017262 49.664081 -79.900397 -34.991560 0.000000 0.000000 0.000000 12.451115 21.240183 8.566204 45.471779 40.141809 8.824119 -64.216510 51.876160 -29.922314 0.000000 0.000000 0.000000 
-0.158459 0.484349 0.517944 15.090233 -6.405877 -2.820902 2.481006 -1.273452 -21.251705 16.374981 -28.545534 112.639795 -25.793779 -43.693821 10.328181 0.000000 0.000000 0.000000 -4.822601 0.518281 -6.508046 12.729751 -7.314933 113.542031 -7.101302 -17.723629 4.290197 0.000000 0.000000 0.000000 -2.912258 0.194053 23.413911 3.699344 -0.847239 -17.653966 -8.686993 0.021648 24.520912 10.854829 -3.488598 -35.889505 0.000000 0.000000 0.000000 -43.256499 -9.686776 7.238546 -44.327239 -17.690138 -1.803659 45.171572 -77.799079 -29.893605 0.000000 0.000000 0.000000 10.436701 22.308856 8.675714 41.209536 43.796367 8.974426 -65.961710 43.118638 -25.359772 0.000000 0.000000 0.000000 
-0.152849 0.486366 0.509941 14.026538 -6.820153 -2.489991 3.008232 -1.184329 -22.165979 16.570565 -28.646705 112.620783 -22.393293 -44.213895 4.874016 0.000000 0.000000 0.000000 -4.715760 0.522647 -6.423956 12.594205 -6.647314 112.928337 -6.958514 -17.358950 0.461389 0.000000 0.000000 0.000000 -2.207596 0.046007 23.239470 3.459371 -0.803566 -17.287470 -8.371852 0.277221 24.473242 11.298865 -3.746081 -35.484535 0.000000 0.000000 0.000000 -42.704788 -9.665356 7.126338 -44.086932 -17.669473 -1.780630 45.813554 -74.612780 -28.827543 0.000000 0.000000 0.000000 10.316612 22.550632 8.781491 36.717625 47.146561 8.615751 -65.296243 34.731117 -19.674011 0.000000 0.000000 0.000000 
-0.148560 0.485716 0.503545 13.161800 -6.859275 -2.720537 4.294382 -0.898814 -21.783636 16.608634 -28.748916 112.540846 -22.758658 -44.778109 5.018567 0.000000 0.000000 0.000000 -4.290959 0.512059 -6.165484 12.256511 -6.014085 113.045044 -6.681757 -16.625516 -1.993179 0.000000 0.000000 0.000000 -2.331599 0.069123 23.659649 4.026351 -0.994252 -17.101854 -8.576982 0.453123 24.651477 11.033925 -3.716779 -35.003786 0.000000 0.000000 0.000000 -43.241834 -9.394895 6.815501 -42.399395 -17.552124 -1.839098 40.971341 -70.528112 -23.435408 0.000000 0.000000 0.000000 11.650672 22.104797 8.787805 32.483677 48.625714 7.524222 -65.305128 30.144391 -16.821168 0.000000 0.000000 0.000000 
-0.145321 0.484692 0.499321 11.918969 -6.350593 -3.143674 5.283715 -0.721750 -22.238013 16.725086 -30.177410 113.210894 -22.567983 -44.905678 4.618652 0.000000 0.000000 0.000000 -3.690120 0.483811 -5.718397 12.171476 -6.466223 112.924956 -5.693306 -13.807973 -4.549996 0.000000 0.000000 0.000000 -2.504719 0.061667 23.702412 4.514267 -1.178612 -16.550143 -8.059107 0.605837 24.763340 10.954177 -3.783132 -34.184330 0.000000 0.000000 0.000000 -44.517341 -9.186861 6.383385 -40.056603 -16.776556 -2.013008 36.460262 -66.215501 -18.954990 0.000000 0.000000 0.000000 13.680888 21.134405 8.673674 30.354750 48.798547 6.819624 -66.134142 28.998930 -16.322632 0.000000 0.000000 0.000000 
-0.142510 0.482353 0.497231 10.865154 -5.631874 -3.569458 6.747773 -0.440544 -21.911415 16.615749 -31.190313 113.539927 -23.005500 -46.162241 4.330458 0.000000 0.000000 0.000000 -2.954071 0.479756 -5.590108 12.018508 -7.093751 113.207501 -5.272175 -12.437333 -5.686782 0.000000 0.000000 0.000000 -2.947580 0.107343 24.057914 4.450456 -1.160097 -16.375200 -7.406023 0.127804 24.711510 10.821293 -3.784643 -33.917730 0.000000 0.000000 0.000000 -45.172179 -8.962486 6.201650 -38.483586 -16.466003 -2.093410 33.625947 -61.482276 -15.731819 0.000000 0.000000 0.000000 15.670030 20.160418 8.408838 28.364876 46.545356 5.600399 -65.670185 28.994429 -16.307900 0.000000 0.000000 0.000000 
-0.139038 0.481102 0.496953 9.849992 -4.569973 -4.342193 7.868990 -0.253739 -21.758765 16.485700 -32.646984 114.028899 -23.071935 -46.457663 4.137212 0.000000 0.000000 0.000000 -2.151889 0.421531 -4.767887 11.812521 -7.905846 113.187651 -4.813153 -10.758626 -7.077777 0.000000 0.000000 0.000000 -3.720755 0.194941 23.979460 5.373859 -1.452422 -16.183851 -7.285877 0.091792 24.663599 10.667877 -3.744361 -33.364929 0.000000 0.000000 0.000000 -46.144388 -7.912427 4.884538 -36.885400 -15.494424 -2.232517 29.365769 -58.583880 -12.654237 0.000000 0.000000 0.000000 17.789355 17.951167 7.623279 29.989938 42.460330 5.184040 -66.611186 32.994281 -19.091464 0.000000 0.000000 0.000000 
-0.134582 0.480265 0.497906 8.804041 -4.103183 -4.702087 8.878832 -0.066816 -21.364719 15.409450 -32.406284 115.499950 -21.945883 -46.163223 2.599507 0.000000 0.000000 0.000000 -1.764514 0.393559 -4.374824 11.146194 -7.273019 113.397908 -4.067884 -8.232670 -7.860325 0.000000 0.000000 0.000000 -3.916647 0.190152 23.852843 5.065259 -1.337633 -16.302334 -6.931742 -0.305873 24.778972 10.293694 -3.522070 -33.798999 0.000000 0.000000 0.000000 -47.007305 -6.397835 3.592934 -35.477610 -14.643816 -2.462176 25.452850 -55.683062 -9.911845 0.000000 0.000000 0.000000 19.651356 15.820952 6.605053 31.566419 36.960396 4.258567 -64.753484 37.389558 -21.236547 0.000000 0.000000 0.000000 
-0.129150 0.480384 0.499573 8.126391 -3.469048 -4.418683 9.313606 -0.025371 -21.038531 14.603293 -31.896507 115.750219 -20.189592 -46.020600 -0.075476 0.000000 0.000000 0.000000 -1.192540 0.456062 -4.979482 10.852156 -7.600939 113.595994 -4.281264 -8.686035 -8.338693 0.000000 0.000000 0.000000 -4.318807 0.216410 23.200778 5.017406 -1.229702 -17.285408 -6.502367 -0.674742 25.863402 9.771013 -3.274408 -34.074126 0.000000 0.000000 0.000000 -47.775508 -5.246214 2.640462 -34.314086 -14.297442 -2.611463 23.934257 -53.106742 -8.629379 0.000000 0.000000 0.000000 20.282357 13.350327 5.320074 33.624053 30.987535 3.044529 -61.808639 42.523005 -23.114053 0.000000 0.000000 0.000000 
-0.123286 0.479770 0.501385 7.314901 -2.683278 -4.234831 9.640365 -0.016289 -20.390445 13.936654 -31.648667 115.758661 -18.843628 -44.819843 -1.480687 0.000000 0.000000 0.000000 -0.847722 0.483186 -5.185000 10.064641 -7.070308 113.439531 -4.151770 -8.236184 -8.204393 0.000000 0.000000 0.000000 -4.446374 0.186150 22.904018 5.197907 -1.258641 -17.299986 -6.687507 -1.402373 25.705570 8.960117 -2.751116 -34.955028 0.000000 0.000000 0.000000 -48.484474 -3.743367 1.359632 -32.881649 -14.378957 -2.557123 20.576429 -50.273823 -6.585937 0.000000 0.000000 0.000000 21.819957 11.143525 4.036097 34.281252 25.886247 1.871760 -53.072398 46.114886 -21.169394 0.000000 0.000000 0.000000 
-0.117180 0.478461 0.503555 6.657962 -2.692807 -3.667725 9.551599 -0.045865 -20.094432 13.929222 -31.675945 115.712990 -17.924679 -44.861053 -2.979606 0.000000 0.000000 0.000000 -0.305003 0.571168 -5.929396 9.647988 -6.466284 113.816889 -4.241015 -8.622210 -7.835083 0.000000 0.000000 0.000000 -4.377005 0.161788 22.507798 4.816554 -1.125639 -17.393377 -6.507066 -1.921487 25.829339 8.726887 -2.707503 -35.005135 0.000000 0.000000 0.000000 -48.666853 -3.577206 1.543046 -31.789516 -15.163129 -2.439076 18.598884 -47.277423 -5.302472 0.000000 0.000000 0.000000 23.151437 10.034136 3.240823 35.011434 20.686952 0.622912 -42.694228 47.823660 -17.166787 0.000000 0.000000 0.000000 
